# This file uses centimeters as units for non-parametric coordinates.

mtllib NodeIrradiator.mtl
g flare1Set
v -0.355000 -0.000000 0.355000
v 0.355000 -0.000000 0.355000
v -0.181000 0.300000 0.181000
v 0.181000 0.300000 0.181000
v -0.181000 0.300000 -0.181000
v 0.181000 0.300000 -0.181000
v -0.355000 -0.000000 -0.355000
v 0.355000 -0.000000 -0.355000
vt 0.249970 0.000000
vt 0.499970 0.000000
vt 0.249970 0.250000
vt 0.499970 0.250000
vt 0.249970 0.500000
vt 0.499970 0.500000
vt 0.249970 0.750000
vt 0.499970 0.750000
vt 0.249970 1.000000
vt 0.499970 1.000000
vt 0.749970 0.000000
vt 0.749970 0.250000
vt -0.000030 0.000000
vt -0.000030 0.250000
vn 0.000000 0.501718 0.865031
vn 0.000000 0.501718 0.865031
vn 0.000000 0.501718 0.865031
vn 0.000000 0.501718 0.865031
vn 0.000000 1.000000 0.000000
vn 0.000000 1.000000 0.000000
vn 0.000000 1.000000 0.000000
vn 0.000000 1.000000 0.000000
vn 0.000000 0.501718 -0.865031
vn 0.000000 0.501718 -0.865031
vn 0.000000 0.501718 -0.865031
vn 0.000000 0.501718 -0.865031
vn 0.000000 -1.000000 0.000000
vn 0.000000 -1.000000 0.000000
vn 0.000000 -1.000000 0.000000
vn 0.000000 -1.000000 0.000000
vn 0.865031 0.501718 0.000000
vn 0.865031 0.501718 0.000000
vn 0.865031 0.501718 0.000000
vn 0.865031 0.501718 0.000000
vn -0.865031 0.501718 0.000000
vn -0.865031 0.501718 0.000000
vn -0.865031 0.501718 0.000000
vn -0.865031 0.501718 0.000000
s off
g base1
usemtl initialShadingGroup
f 1/1/1 2/2/2 4/4/3 3/3/4
f 3/3/5 4/4/6 6/6/7 5/5/8
f 5/5/9 6/6/10 8/8/11 7/7/12
f 7/7/13 8/8/14 2/10/15 1/9/16
f 2/2/17 8/11/18 6/12/19 4/4/20
f 7/13/21 1/1/22 3/3/23 5/14/24
g default
v 0.000000 0.250000 0.088388
v 0.088388 0.250000 -0.000000
v 0.000000 0.750000 0.088388
v 0.088388 0.750000 -0.000000
v -0.088388 0.750000 0.000000
v -0.000000 0.750000 -0.088388
v -0.088388 0.250000 0.000000
v -0.000000 0.250000 -0.088388
vt 0.249971 0.000000
vt 0.499971 0.000000
vt 0.249971 0.250000
vt 0.499971 0.250000
vt 0.249971 0.500000
vt 0.499971 0.500000
vt 0.249971 0.750000
vt 0.499971 0.750000
vt 0.249971 1.000000
vt 0.499971 1.000000
vt 0.749971 0.000000
vt 0.749971 0.250000
vt -0.000029 0.000000
vt -0.000029 0.250000
vn 0.707107 0.000000 0.707107
vn 0.707107 0.000000 0.707107
vn 0.707107 0.000000 0.707107
vn 0.707107 0.000000 0.707107
vn 0.000000 1.000000 0.000000
vn 0.000000 1.000000 0.000000
vn 0.000000 1.000000 0.000000
vn 0.000000 1.000000 0.000000
vn -0.707107 0.000000 -0.707107
vn -0.707107 0.000000 -0.707107
vn -0.707107 0.000000 -0.707107
vn -0.707107 0.000000 -0.707107
vn 0.000000 -1.000000 0.000000
vn 0.000000 -1.000000 0.000000
vn 0.000000 -1.000000 0.000000
vn 0.000000 -1.000000 0.000000
vn 0.707107 0.000000 -0.707107
vn 0.707107 0.000000 -0.707107
vn 0.707107 0.000000 -0.707107
vn 0.707107 0.000000 -0.707107
vn -0.707107 0.000000 0.707107
vn -0.707107 0.000000 0.707107
vn -0.707107 0.000000 0.707107
vn -0.707107 0.000000 0.707107
s off
g rod
usemtl lambert2SG
f 9/15/25 10/16/26 12/18/27 11/17/28
f 11/17/29 12/18/30 14/20/31 13/19/32
f 13/19/33 14/20/34 16/22/35 15/21/36
f 15/21/37 16/22/38 10/24/39 9/23/40
f 10/16/41 16/25/42 14/26/43 12/18/44
f 15/27/45 9/15/46 11/17/47 13/28/48
g default
v -0.375000 0.325000 0.375000
v 0.375000 0.325000 0.375000
v -0.375000 0.375000 0.375000
v 0.375000 0.375000 0.375000
v -0.375000 0.375000 -0.375000
v 0.375000 0.375000 -0.375000
v -0.375000 0.325000 -0.375000
v 0.375000 0.325000 -0.375000
vt 0.249966 0.000000
vt 0.499966 0.000000
vt 0.249966 0.250000
vt 0.499966 0.250000
vt 0.249966 0.500000
vt 0.499966 0.500000
vt 0.249966 0.750000
vt 0.499966 0.750000
vt 0.249966 1.000000
vt 0.499966 1.000000
vt 0.749966 0.000000
vt 0.749966 0.250000
vt -0.000034 0.000000
vt -0.000034 0.250000
vn 0.000000 0.000000 1.000000
vn 0.000000 0.000000 1.000000
vn 0.000000 0.000000 1.000000
vn 0.000000 0.000000 1.000000
vn 0.000000 1.000000 0.000000
vn 0.000000 1.000000 0.000000
vn 0.000000 1.000000 0.000000
vn 0.000000 1.000000 0.000000
vn 0.000000 0.000000 -1.000000
vn 0.000000 0.000000 -1.000000
vn 0.000000 0.000000 -1.000000
vn 0.000000 0.000000 -1.000000
vn 0.000000 -1.000000 0.000000
vn 0.000000 -1.000000 0.000000
vn 0.000000 -1.000000 0.000000
vn 0.000000 -1.000000 0.000000
vn 1.000000 0.000000 0.000000
vn 1.000000 0.000000 0.000000
vn 1.000000 0.000000 0.000000
vn 1.000000 0.000000 0.000000
vn -1.000000 0.000000 0.000000
vn -1.000000 0.000000 0.000000
vn -1.000000 0.000000 0.000000
vn -1.000000 0.000000 0.000000
s off
g rotator
usemtl lambert3SG
f 17/29/49 18/30/50 20/32/51 19/31/52
f 19/31/53 20/32/54 22/34/55 21/33/56
f 21/33/57 22/34/58 24/36/59 23/35/60
f 23/35/61 24/36/62 18/38/63 17/37/64
f 18/30/65 24/39/66 22/40/67 20/32/68
f 23/41/69 17/29/70 19/31/71 21/42/72
g default
v -0.100000 -0.268839 -0.015024
v 0.100000 -0.268839 -0.015024
v -0.100000 0.184315 0.196285
v 0.100000 0.184315 0.196285
v -0.100000 0.268839 0.015024
v 0.100000 0.268839 0.015024
v -0.100000 -0.184315 -0.196285
v 0.100000 -0.184315 -0.196285
vt 0.249968 0.000000
vt 0.499968 0.000000
vt 0.249968 0.250000
vt 0.499968 0.250000
vt 0.249968 0.500000
vt 0.499968 0.500000
vt 0.249968 0.750000
vt 0.499968 0.750000
vt 0.249968 1.000000
vt 0.499968 1.000000
vt 0.749968 0.000000
vt 0.749968 0.250000
vt -0.000032 0.000000
vt -0.000032 0.250000
vn 0.000000 -0.422618 0.906308
vn 0.000000 -0.422618 0.906308
vn 0.000000 -0.422618 0.906308
vn 0.000000 -0.422618 0.906308
vn 0.000000 0.906308 0.422618
vn 0.000000 0.906308 0.422618
vn 0.000000 0.906308 0.422618
vn 0.000000 0.906308 0.422618
vn 0.000000 0.422618 -0.906308
vn 0.000000 0.422618 -0.906308
vn 0.000000 0.422618 -0.906308
vn 0.000000 0.422618 -0.906308
vn 0.000000 -0.906308 -0.422618
vn 0.000000 -0.906308 -0.422618
vn 0.000000 -0.906308 -0.422618
vn 0.000000 -0.906308 -0.422618
vn 1.000000 0.000000 0.000000
vn 1.000000 0.000000 0.000000
vn 1.000000 0.000000 0.000000
vn 1.000000 0.000000 0.000000
vn -1.000000 0.000000 0.000000
vn -1.000000 0.000000 0.000000
vn -1.000000 0.000000 0.000000
vn -1.000000 0.000000 0.000000
s off
g irradiator_1
usemtl lambert2SG
f 25/43/73 26/44/74 28/46/75 27/45/76
f 27/45/77 28/46/78 30/48/79 29/47/80
f 29/47/81 30/48/82 32/50/83 31/49/84
f 31/49/85 32/50/86 26/52/87 25/51/88
f 26/44/89 32/53/90 30/54/91 28/46/92
f 31/55/93 25/43/94 27/45/95 29/56/96
